<?xml version="1.0" encoding="UTF-8" standalone="no"?>
<svg
   xmlns:dc="http://purl.org/dc/elements/1.1/"
   xmlns:cc="http://creativecommons.org/ns#"
   xmlns:rdf="http://www.w3.org/1999/02/22-rdf-syntax-ns#"
   xmlns:svg="http://www.w3.org/2000/svg"
   xmlns="http://www.w3.org/2000/svg"
   xmlns:sodipodi="http://sodipodi.sourceforge.net/DTD/sodipodi-0.dtd"
   xmlns:inkscape="http://www.inkscape.org/namespaces/inkscape"
   inkscape:version="1.0 (4035a4fb49, 2020-05-01)"
   sodipodi:docname="theone.svg"
   viewBox="0 0 1957.245 488.05583"
   height="488.05573"
   width="1957.0452"
   id="svg466"
   version="1.1">
  <metadata
     id="metadata472">
    <rdf:RDF>
      <cc:Work
         rdf:about="">
        <dc:format>image/svg+xml</dc:format>
        <dc:type
           rdf:resource="http://purl.org/dc/dcmitype/StillImage" />
        <dc:title></dc:title>
      </cc:Work>
    </rdf:RDF>
  </metadata>
  <defs
     id="defs470" />
  <sodipodi:namedview
     inkscape:document-rotation="0"
     showguides="true"
     inkscape:pagecheckerboard="false"
     showborder="false"
     fit-margin-bottom="0"
     fit-margin-right="0"
     fit-margin-left="0"
     fit-margin-top="0"
     inkscape:snap-others="false"
     inkscape:current-layer="g30"
     inkscape:window-maximized="1"
     inkscape:window-y="-8"
     inkscape:window-x="-8"
     inkscape:cy="611.14236"
     inkscape:cx="932.38946"
     inkscape:zoom="0.32"
     showgrid="false"
     id="namedview468"
     inkscape:window-height="837"
     inkscape:window-width="1600"
     inkscape:pageshadow="2"
     inkscape:pageopacity="0"
     guidetolerance="10"
     gridtolerance="10"
     objecttolerance="10"
     borderopacity="1"
     bordercolor="#666666"
     pagecolor="#ffffff" />
  <flowRoot
     transform="translate(844.08802,603.22768)"
     style="font-style:normal;font-weight:normal;font-size:40px;line-height:1.25;font-family:sans-serif;letter-spacing:0px;word-spacing:0px;fill:#000000;fill-opacity:1;stroke:none"
     id="flowRoot515"
     xml:space="preserve"><flowRegion
       id="flowRegion517"><rect
         y="213"
         x="534"
         height="108"
         width="11"
         id="rect519" /></flowRegion><flowPara
       id="flowPara521" /></flowRoot>
  <g
     transform="translate(1335.6544,701.51786)"
     id="g1735">
    <g
       id="g1696"
       transform="matrix(2.3263297,0,0,2.6012363,-1145.4092,608.63587)">
      <g
         id="g1744">
        <g
           transform="matrix(2.5976703,0,0,2.6840516,-770.08162,262.04628)"
           id="g1758">
          <g
             transform="translate(-47.575412,21.931858)"
             id="g30">
            <g
               transform="translate(20.687074,15.219578)"
               id="g39">
              <g
                 transform="matrix(1.7857604,0,0,2.00003,-294.89569,95.068269)"
                 id="g1764">
                <path
                   inkscape:connector-curvature="0"
                   id="path513"
                   d="m 507.87184,-186.79197 c -0.0507,-0.0405 -2.6734,-0.11445 -5.82823,-0.16444 -5.29138,-0.0838 -5.77657,-0.10843 -6.25907,-0.31791 -0.52185,-0.22656 -2.04747,-0.98606 -3.5671,-1.77581 l -0.80243,-0.41702 -4.57747,-0.0351 c -3.09149,-0.0237 -5.57199,0.0226 -7.64103,0.14238 -1.68496,0.0976 -6.32512,0.23065 -10.31148,0.29573 -3.98636,0.0651 -10.40862,0.17102 -14.27169,0.23543 -3.86308,0.0644 -8.38032,0.11669 -10.03831,0.11621 l -3.01455,-0.001 -0.54021,-0.48977 c -0.29712,-0.26938 -0.57884,-0.60921 -0.62606,-0.75517 -0.1032,-0.31913 0.30959,-1.35072 0.71909,-1.797 0.29189,-0.31813 0.31127,-0.32131 1.96583,-0.32257 2.19329,-0.002 2.79187,-0.0798 2.79187,-0.36431 0,-0.12059 -0.1736,-0.42283 -0.38577,-0.67163 l -0.38576,-0.45239 -1.8996,-0.0381 -1.89961,-0.0381 -1.56275,-0.59087 c -1.78496,-0.67489 -2.32244,-0.99171 -2.97052,-1.75101 -0.57401,-0.67253 -0.5743,-0.88689 -0.003,-1.73442 0.98126,-1.45363 2.11155,-1.89636 4.8414,-1.89636 0.85645,0 1.59753,-0.0507 1.64683,-0.11255 0.0493,-0.0619 0.16602,-0.55565 0.25939,-1.09722 0.11985,-0.69475 0.23899,-1.00739 0.40487,-1.06187 0.12931,-0.0424 1.61747,-0.11344 3.30699,-0.15773 1.68954,-0.0443 3.15229,-0.11908 3.25057,-0.16622 0.12448,-0.0597 0.15249,-0.32106 0.0924,-0.86158 -0.1828,-1.64286 0.70348,-3.65645 2.01082,-4.56846 0.65206,-0.45488 2.25946,-1.23188 2.25946,-1.0922 0,0.0323 -0.12952,0.2312 -0.28783,0.44214 -0.9818,1.30832 -1.19346,3.22786 -0.54638,4.95515 0.19874,0.53047 0.41729,1.00666 0.48569,1.05819 0.0684,0.0515 2.4683,0.1314 5.33311,0.17746 l 5.20876,0.0837 0.26971,0.34418 c 0.2464,0.31445 0.26249,0.57721 0.18611,3.0428 -0.0835,2.69243 -0.0828,2.69882 0.24004,2.77835 0.17798,0.0439 0.54112,0.0281 0.80695,-0.035 0.46199,-0.10965 1.83941,-0.251 6.46101,-0.66325 2.98195,-0.26599 8.99295,-1.06822 9.46455,-1.26313 0.21924,-0.0906 0.87437,-0.54638 1.45587,-1.0128 1.24622,-0.99962 1.94108,-1.2928 3.82325,-1.61321 1.15465,-0.19657 1.79657,-0.23079 3.71239,-0.19795 2.20718,0.0378 2.36715,0.0568 3.39413,0.40133 1.35998,0.45629 2.49238,1.09677 2.7316,1.54499 0.52989,0.99275 -0.84858,2.63694 -2.88239,3.43803 -0.55865,0.22004 -1.66825,0.54106 -2.46579,0.71337 -1.26702,0.27375 -1.72352,0.31347 -3.61694,0.31473 l -2.1669,0.001 -1.31142,-0.48896 c -0.72128,-0.26894 -1.50567,-0.65402 -1.74309,-0.85575 l -0.43169,-0.36679 -1.02157,0.18892 c -0.56188,0.10387 -1.62682,0.2628 -2.36655,0.35311 -0.73974,0.0903 -2.28646,0.3017 -3.43716,0.46978 -1.15071,0.16807 -3.20179,0.46373 -4.55798,0.657 -1.35617,0.19329 -3.1405,0.47767 -3.96517,0.63197 -0.82466,0.15428 -1.61838,0.28052 -1.7638,0.28052 -0.14543,0 -0.7453,0.0848 -1.33303,0.18863 -1.2521,0.221 -1.9045,0.62582 -1.9045,1.18173 0,0.19832 0.0946,0.3726 0.22291,0.41082 0.12255,0.0365 3.66998,0.071 7.88305,0.0767 8.04482,0.0111 9.78676,0.0403 13.56055,0.22958 1.27258,0.0638 3.4659,0.11603 4.87405,0.11603 2.41429,0 2.58419,-0.0146 2.9797,-0.25605 0.46525,-0.28399 1.40539,-0.69084 2.98332,-1.29102 1.71206,-0.6512 2.28164,-0.6978 6.70982,-0.54897 6.61695,0.22237 6.81248,0.23362 7.27289,0.41839 0.45197,0.18138 0.58061,0.46134 0.25162,0.5475 -0.10281,0.0269 -2.30514,0.0252 -4.89423,-0.004 -5.1093,-0.0573 -5.88558,0.007 -6.95999,0.57454 -0.5841,0.30867 -0.63735,0.52738 -0.21418,0.87986 0.52621,0.43832 1.21103,0.49011 6.49108,0.49078 3.53894,4.5e-4 5.21876,0.0423 5.56153,0.13845 0.81665,0.22918 0.81901,0.65769 0.005,0.92433 -0.36883,0.12082 -1.72744,0.15559 -6.07904,0.15559 -4.95354,0 -5.6691,0.0229 -6.16446,0.19705 -1.16351,0.40908 -0.55454,0.85427 1.38969,1.01591 1.66336,0.1383 7.36425,0.35085 9.43959,0.35193 1.24562,5.9e-4 1.47228,0.0305 1.59606,0.20997 0.0793,0.11505 0.0934,0.273 0.0313,0.35098 -0.12217,0.15348 -1.52583,0.32207 -1.677,0.20143 z m -65.18122,-7.94646 c 0.33824,-0.24454 0.63987,-1.12727 0.63987,-1.87259 0,-0.56582 -0.25663,-0.96632 -0.95103,-1.48425 -0.48317,-0.36036 -0.62122,-0.39805 -1.61925,-0.44218 -1.35284,-0.0598 -1.84437,0.14332 -2.50278,1.0343 -0.84514,1.14367 -0.60709,1.55242 1.3747,2.36059 1.62489,0.66265 2.53468,0.78285 3.05849,0.40413 z"
                   style="fill:#ff0000;stroke-width:0.131649" />
                <text
                   xml:space="preserve"
                   style="font-style:normal;font-variant:normal;font-weight:bold;font-stretch:normal;font-size:24.2279px;line-height:1.25;font-family:Arial;-inkscape-font-specification:'Arial, Bold';font-variant-ligatures:normal;font-variant-caps:normal;font-variant-numeric:normal;font-feature-settings:normal;text-align:start;letter-spacing:0px;word-spacing:0px;writing-mode:lr-tb;text-anchor:start;fill:#ffffff;fill-opacity:1;stroke:none;stroke-width:0.623552"
                   x="321.33466"
                   y="-191.77661"
                   id="text928"
                   transform="scale(1.0170973,0.98319007)"><tspan
                     sodipodi:role="line"
                     id="tspan926"
                     x="321.33466"
                     y="-191.77661"
                     style="font-style:normal;font-variant:normal;font-weight:bold;font-stretch:normal;font-size:24.2279px;font-family:Arial;-inkscape-font-specification:'Arial, Bold';font-variant-ligatures:normal;font-variant-caps:normal;font-variant-numeric:normal;font-feature-settings:normal;text-align:start;writing-mode:lr-tb;text-anchor:start;fill:#ffffff;stroke-width:0.623552"><tspan
   style="font-style:normal;font-variant:normal;font-weight:bold;font-stretch:normal;font-size:24.2279px;font-family:Arial;-inkscape-font-specification:'Arial, Bold';font-variant-ligatures:normal;font-variant-caps:normal;font-variant-numeric:normal;font-feature-settings:normal;text-align:start;writing-mode:lr-tb;text-anchor:start;opacity:1;fill:#ffffff;fill-opacity:1;stroke-width:0.623552"
   id="tspan930">M</tspan>ISTRAL</tspan></text>
              </g>
              <text
                 transform="scale(0.82053867,1.2187116)"
                 id="text21"
                 y="-207.43352"
                 x="415.17715"
                 style="font-style:normal;font-weight:normal;font-size:14.9113px;line-height:1.25;font-family:sans-serif;fill:#ffffff;fill-opacity:1;stroke:none;stroke-width:0.372782"
                 xml:space="preserve"><tspan
                   style="fill:#ffffff;stroke-width:0.372782"
                   y="-207.43352"
                   x="415.17715"
                   id="tspan19"
                   sodipodi:role="line">CAFE - RESTAURANT - PIZZERIA</tspan></text>
            </g>
          </g>
        </g>
      </g>
    </g>
  </g>
</svg>
